<svg width="108" height="108" viewBox="0 0 108 108" fill="none" xmlns="http://www.w3.org/2000/svg">
<path d="M70.7499 74.1004C91.1012 74.1004 107.6 57.6016 107.6 37.2504C107.6 16.8991 91.1012 0.400391 70.7499 0.400391C50.3987 0.400391 33.8999 16.8991 33.8999 37.2504C33.8999 41.1657 34.5071 44.9554 35.6377 48.4938L1.86553 82.266C0.92334 83.2082 0.399902 84.4854 0.399902 85.8254V102.575C0.399902 105.36 2.64021 107.6 5.4249 107.6H22.1749C24.9596 107.6 27.1999 105.36 27.1999 102.575V94.2004H35.5749C38.3596 94.2004 40.5999 91.9601 40.5999 89.1754V80.8004H48.9749C50.3149 80.8004 51.5921 80.277 52.5343 79.3348L59.5065 72.3626C63.0449 73.4932 66.8346 74.1004 70.7499 74.1004ZM79.1249 20.5004C81.3461 20.5004 83.4763 21.3828 85.0469 22.9534C86.6175 24.524 87.4999 26.6542 87.4999 28.8754C87.4999 31.0966 86.6175 33.2268 85.0469 34.7974C83.4763 36.368 81.3461 37.2504 79.1249 37.2504C76.9037 37.2504 74.7735 36.368 73.2029 34.7974C71.6323 33.2268 70.7499 31.0966 70.7499 28.8754C70.7499 26.6542 71.6323 24.524 73.2029 22.9534C74.7735 21.3828 76.9037 20.5004 79.1249 20.5004Z" fill="#008080"/>
</svg>
