<svg width="20" height="16" viewBox="0 0 20 16" fill="none" xmlns="http://www.w3.org/2000/svg">
<path d="M2.1999 0.689453C1.20615 0.689453 0.399902 1.4957 0.399902 2.48945C0.399902 3.0557 0.666152 3.5882 1.1199 3.92945L9.2799 10.0495C9.7074 10.3682 10.2924 10.3682 10.7199 10.0495L18.8799 3.92945C19.3337 3.5882 19.5999 3.0557 19.5999 2.48945C19.5999 1.4957 18.7937 0.689453 17.7999 0.689453H2.1999ZM0.399902 4.88945V12.6895C0.399902 14.0132 1.47615 15.0895 2.7999 15.0895H17.1999C18.5237 15.0895 19.5999 14.0132 19.5999 12.6895V4.88945L11.4399 11.0095C10.5849 11.6507 9.4149 11.6507 8.5599 11.0095L0.399902 4.88945Z" fill="#008080"/>
</svg>
