<svg width="166" height="55" viewBox="0 0 166 55" fill="none" xmlns="http://www.w3.org/2000/svg">
<path d="M68.9257 33.5367C67.8782 33.5367 66.8875 33.3241 65.9542 32.8983C65.0204 32.473 64.2002 31.8849 63.4936 31.1344C62.788 30.3829 62.2372 29.5064 61.8423 28.505C61.4484 27.5024 61.2515 26.416 61.2515 25.2457C61.2515 24.1376 61.4484 23.0945 61.8423 22.1163C62.2372 21.137 62.7913 20.2746 63.5044 19.5301C64.2186 18.7856 65.0539 18.2013 66.0105 17.7771C66.9671 17.3518 68.007 17.1387 69.1313 17.1387C70.6489 17.1387 71.9501 17.4622 73.0354 18.1082C74.1219 18.7532 74.9383 19.6069 75.4853 20.6685L73.1393 22.3998C72.7292 21.5947 72.1557 20.9801 71.4188 20.5559C70.683 20.1307 69.8822 19.9175 69.0166 19.9175C68.3338 19.9175 67.7115 20.0619 67.1489 20.3503C66.5873 20.6392 66.1019 21.0337 65.6924 21.5341C65.2823 22.0351 64.9674 22.6119 64.7466 23.2655C64.5259 23.918 64.4155 24.6083 64.4155 25.3366C64.4155 26.1114 64.5329 26.8256 64.7683 27.4791C65.0047 28.1316 65.3385 28.7008 65.7703 29.1867C66.2031 29.6715 66.7079 30.0545 67.2852 30.3359C67.862 30.6172 68.4999 30.7579 69.1983 30.7579C70.0191 30.7579 70.8047 30.5458 71.5551 30.1216C72.3067 29.6963 73.0095 29.0731 73.6631 28.2517V31.3487C72.311 32.8074 70.7317 33.5367 68.9257 33.5367ZM73.4358 27.4099H70.1787V25.1094H76.0307V33.422H73.4358V27.4099Z" fill="white"/>
<path d="M83.9231 33.6474C82.9519 33.6474 82.0792 33.484 81.3044 33.1583C80.5307 32.8326 79.8744 32.3808 79.335 31.8035C78.7967 31.2268 78.3833 30.5667 78.0949 29.8233C77.806 29.0788 77.6621 28.2964 77.6621 27.4751C77.6621 26.6414 77.806 25.852 78.0949 25.1075C78.3833 24.363 78.7967 23.703 79.335 23.1273C79.8744 22.5505 80.5307 22.0988 81.3044 21.7725C82.0792 21.4452 82.9519 21.2812 83.9231 21.2812C84.8953 21.2812 85.7648 21.4452 86.5309 21.7725C87.2981 22.0988 87.955 22.5505 88.5003 23.1273C89.0468 23.703 89.4612 24.363 89.7426 25.1075C90.0239 25.852 90.1646 26.6414 90.1646 27.4751C90.1646 28.2964 90.0239 29.0788 89.7426 29.8233C89.4612 30.5667 89.0506 31.2268 88.5112 31.8035C87.9728 32.3808 87.3165 32.8326 86.5418 33.1583C85.7681 33.484 84.8953 33.6474 83.9231 33.6474ZM80.8045 27.4751C80.8045 28.1753 80.9408 28.7948 81.2135 29.3342C81.4873 29.8725 81.8595 30.294 82.3303 30.5981C82.8004 30.901 83.3312 31.0525 83.9231 31.0525C84.4998 31.0525 85.0236 30.8967 85.4943 30.5851C85.9661 30.2734 86.3416 29.8487 86.6218 29.3104C86.9032 28.7709 87.0438 28.152 87.0438 27.4535C87.0438 26.7696 86.9032 26.155 86.6218 25.6096C86.3416 25.0632 85.9661 24.6379 85.4943 24.3349C85.0236 24.0308 84.4998 23.8783 83.9231 23.8783C83.3312 23.8783 82.8004 24.0341 82.3303 24.3457C81.8595 24.6563 81.4873 25.081 81.2135 25.6204C80.9408 26.1588 80.8045 26.7772 80.8045 27.4751Z" fill="white"/>
<path d="M95.4169 33.4177L91.0215 21.4844H94.1855L97.1916 30.6389L100.221 21.4844H103.113L98.7411 33.4177H95.4169Z" fill="white"/>
<path d="M110.257 33.6474C109.3 33.6474 108.435 33.484 107.66 33.1583C106.886 32.8326 106.226 32.3851 105.68 31.8165C105.133 31.2468 104.711 30.5937 104.416 29.8579C104.12 29.121 103.972 28.3424 103.972 27.5228C103.972 26.3833 104.226 25.3429 104.734 24.402C105.243 23.46 105.972 22.7047 106.92 22.1361C107.869 21.5664 108.989 21.2812 110.281 21.2812C111.585 21.2812 112.7 21.5664 113.627 22.1361C114.553 22.7047 115.263 23.4563 115.756 24.3912C116.25 25.325 116.496 26.3303 116.496 27.4081C116.496 27.5898 116.488 27.776 116.472 27.9664C116.458 28.1558 116.443 28.3105 116.429 28.4317H107.205C107.266 29.0393 107.444 29.5712 107.74 30.0267C108.035 30.4828 108.415 30.8285 108.878 31.0634C109.342 31.2987 109.839 31.4161 110.372 31.4161C110.979 31.4161 111.552 31.2684 112.09 30.9725C112.629 30.677 112.997 30.2859 113.194 29.7995L115.815 30.5288C115.526 31.1348 115.112 31.6737 114.572 32.1454C114.034 32.6162 113.4 32.9841 112.67 33.2492C111.941 33.5143 111.137 33.6474 110.257 33.6474ZM107.136 26.4969H113.378C113.317 25.8899 113.146 25.3624 112.865 24.9149C112.583 24.4664 112.214 24.1174 111.759 23.8674C111.304 23.6164 110.796 23.4909 110.233 23.4909C109.688 23.4909 109.191 23.6164 108.742 23.8674C108.295 24.1174 107.93 24.4664 107.649 24.9149C107.368 25.3624 107.197 25.8899 107.136 26.4969Z" fill="white"/>
<path d="M125.461 24.1249C124.535 24.1249 123.707 24.3034 122.979 24.6594C122.25 25.016 121.727 25.5284 121.408 26.196V33.4157H118.356V21.4824H121.157V24.034C121.582 23.2132 122.121 22.5678 122.774 22.097C123.427 21.6269 124.118 21.3688 124.847 21.3223C125.014 21.3223 125.143 21.3223 125.234 21.3223C125.325 21.3223 125.401 21.3304 125.461 21.3461V24.1249Z" fill="white"/>
<path d="M138.257 33.4201H135.205V26.7242C135.205 25.7676 135.038 25.0697 134.703 24.6292C134.37 24.1894 133.907 23.9692 133.314 23.9692C132.904 23.9692 132.49 24.0763 132.072 24.2895C131.655 24.5016 131.279 24.7937 130.944 25.166C130.611 25.5371 130.369 25.9656 130.217 26.4515V33.4201H127.166V21.4868H129.921V23.6965C130.225 23.1803 130.612 22.7437 131.083 22.3871C131.553 22.0295 132.096 21.7563 132.71 21.5669C133.325 21.3765 133.974 21.2812 134.658 21.2812C135.402 21.2812 136.013 21.4149 136.491 21.6816C136.97 21.9473 137.334 22.3038 137.584 22.7507C137.835 23.1982 138.009 23.703 138.108 24.2657C138.207 24.8273 138.257 25.3964 138.257 25.9732V33.4201Z" fill="white"/>
<path d="M140.913 33.4182V21.4849H143.964V33.4182H140.913ZM140.913 19.8228V16.793H143.964V19.8228H140.913Z" fill="white"/>
<path d="M147.446 33.4208V24.4481H145.875V22.126H147.446V21.3967C147.446 20.4098 147.609 19.556 147.935 18.8343C148.261 18.113 148.723 17.5552 149.322 17.1613C149.922 16.7664 150.625 16.5684 151.43 16.5684C151.916 16.5684 152.406 16.629 152.899 16.7502C153.393 16.8713 153.883 17.0461 154.369 17.2739L153.754 19.5744C153.526 19.4532 153.26 19.351 152.956 19.2671C152.653 19.1838 152.364 19.1416 152.09 19.1416C151.575 19.1416 151.18 19.3244 150.906 19.6891C150.634 20.0527 150.497 20.584 150.497 21.2819V22.126H153.412V24.4481H150.497V33.4208H147.446Z" fill="white"/>
<path d="M155.39 35.7398C155.663 35.8004 155.916 35.8535 156.152 35.9C156.386 35.946 156.588 35.9693 156.755 35.9693C157.044 35.9693 157.282 35.8968 157.472 35.7528C157.662 35.6084 157.848 35.3503 158.03 34.9781C158.213 34.6058 158.403 34.0853 158.599 33.4177L153.886 21.4844H157.052L160.264 30.2969L163.086 21.4844H166.001L160.991 35.7853C160.809 36.3177 160.532 36.8003 160.16 37.2331C159.787 37.666 159.324 38.0068 158.77 38.2568C158.216 38.5078 157.598 38.6334 156.916 38.6334C156.672 38.6334 156.429 38.6139 156.186 38.5749C155.944 38.5371 155.678 38.4732 155.39 38.3823V35.7398Z" fill="white"/>
<mask id="mask0_1183_3063" style="mask-type:luminance" maskUnits="userSpaceOnUse" x="-1" y="0" width="54" height="55">
<path d="M-0.000488281 0H52.3327V54.4335H-0.000488281V0Z" fill="white"/>
</mask>
<g mask="url(#mask0_1183_3063)">
<path d="M27.2192 54.4324C12.2117 54.4324 0.00244141 42.2232 0.00244141 27.2157C0.00244141 12.2092 12.2117 0 27.2192 0C34.7841 0 42.0682 3.18676 47.2054 8.74222L48.597 10.2479L38.0585 19.9933L36.6659 18.4881C34.2009 15.8223 30.8458 14.355 27.2192 14.355C20.1272 14.355 14.3575 20.1247 14.3575 27.2157C14.3575 30.8461 15.9092 34.3277 18.6155 36.7678L15.8702 39.8139C12.3026 36.5974 10.2563 32.0056 10.2563 27.2157C10.2563 17.8626 17.8656 10.2539 27.2192 10.2539C31.3111 10.2539 35.1407 11.6698 38.1965 14.2793L42.7342 10.0829C38.506 6.26044 32.9575 4.10167 27.2192 4.10167C14.4732 4.10167 4.10411 14.4697 4.10411 27.2157C4.10411 39.9611 14.4732 50.3308 27.2192 50.3308C32.2369 50.3308 36.8839 48.8418 40.6561 46.0262C43.5534 43.862 45.9388 40.6109 47.43 37.0173L25.1681 36.9994V22.9452H52.2647V27.0463H29.2692V32.9178L52.2729 32.9432C52.2729 32.9432 52.472 35.6479 51.1383 38.7832C49.3588 42.9964 46.5367 46.7534 43.1086 49.312C38.6228 52.6616 33.128 54.4324 27.2192 54.4324Z" fill="white"/>
</g>
</svg>
