<svg width="28" height="29" viewBox="0 0 28 29" fill="none" xmlns="http://www.w3.org/2000/svg">
<g clip-path="url(#clip0_1183_3052)">
<path d="M16.4609 14.7773C16.4609 16.1364 15.3591 17.2383 14 17.2383C12.6409 17.2383 11.5391 16.1364 11.5391 14.7773C11.5391 13.4183 12.6409 12.3164 14 12.3164C15.3591 12.3164 16.4609 13.4183 16.4609 14.7773Z" fill="#008080"/>
<path d="M18.1562 7.33984H9.84375C8.03436 7.33984 6.5625 8.8117 6.5625 10.6211V18.9336C6.5625 20.743 8.03436 22.2148 9.84375 22.2148H18.1562C19.9656 22.2148 21.4375 20.743 21.4375 18.9336V10.6211C21.4375 8.8117 19.9656 7.33984 18.1562 7.33984ZM14 18.8789C11.7384 18.8789 9.89844 17.0389 9.89844 14.7773C9.89844 12.5157 11.7384 10.6758 14 10.6758C16.2616 10.6758 18.1016 12.5157 18.1016 14.7773C18.1016 17.0389 16.2616 18.8789 14 18.8789ZM18.7031 10.8945C18.25 10.8945 17.8828 10.5273 17.8828 10.0742C17.8828 9.62113 18.25 9.25391 18.7031 9.25391C19.1562 9.25391 19.5234 9.62113 19.5234 10.0742C19.5234 10.5273 19.1562 10.8945 18.7031 10.8945Z" fill="#008080"/>
<path d="M20.6172 0.777344H7.38281C3.31198 0.777344 0 4.08938 0 8.16016V21.3945C0 25.4654 3.31204 28.7773 7.38281 28.7773H20.6172C24.688 28.7773 28 25.4653 28 21.3945V8.16016C28 4.08933 24.688 0.777344 20.6172 0.777344ZM23.0781 18.9336C23.0781 21.6475 20.8701 23.8555 18.1562 23.8555H9.84375C7.12988 23.8555 4.92188 21.6475 4.92188 18.9336V10.6211C4.92188 7.90723 7.12988 5.69922 9.84375 5.69922H18.1562C20.8701 5.69922 23.0781 7.90723 23.0781 10.6211V18.9336Z" fill="#008080"/>
</g>
<defs>
<clipPath id="clip0_1183_3052">
<rect width="28" height="28" fill="white" transform="translate(0 0.777344)"/>
</clipPath>
</defs>
</svg>
