<svg width="28" height="29" viewBox="0 0 28 29" fill="none" xmlns="http://www.w3.org/2000/svg">
<g clip-path="url(#clip0_1183_3046)">
<path d="M24.1818 0.777344H3.81818C2.80554 0.777344 1.83437 1.17962 1.11832 1.89566C0.402272 2.61171 0 3.58288 0 4.59553L0 24.9592C0 25.9718 0.402272 26.943 1.11832 27.659C1.83437 28.3751 2.80554 28.7773 3.81818 28.7773H24.1818C25.1945 28.7773 26.1656 28.3751 26.8817 27.659C27.5977 26.943 28 25.9718 28 24.9592V4.59553C28 3.58288 27.5977 2.61171 26.8817 1.89566C26.1656 1.17962 25.1945 0.777344 24.1818 0.777344ZM9.54545 22.9355C9.54566 23.0132 9.53055 23.0901 9.50098 23.1619C9.47142 23.2337 9.42797 23.2989 9.37314 23.3539C9.31832 23.4089 9.25318 23.4525 9.18147 23.4823C9.10975 23.512 9.03287 23.5273 8.95523 23.5273H6.44C6.36222 23.5276 6.28517 23.5124 6.21327 23.4827C6.14138 23.4531 6.07605 23.4095 6.02105 23.3545C5.96606 23.2995 5.92247 23.2341 5.8928 23.1623C5.86314 23.0904 5.84797 23.0133 5.84818 22.9355V12.391C5.84818 12.234 5.91053 12.0835 6.02152 11.9725C6.13251 11.8615 6.28304 11.7992 6.44 11.7992H8.95523C9.11191 11.7996 9.26203 11.8621 9.37268 11.9731C9.48332 12.084 9.54545 12.2343 9.54545 12.391V22.9355ZM7.69682 10.8001C7.22484 10.8001 6.76346 10.6601 6.37103 10.3979C5.97859 10.1357 5.67272 9.76298 5.49211 9.32693C5.31149 8.89088 5.26423 8.41106 5.35631 7.94815C5.44839 7.48524 5.67567 7.06003 6.0094 6.72629C6.34314 6.39255 6.76835 6.16528 7.23126 6.0732C7.69417 5.98112 8.17399 6.02838 8.61004 6.20899C9.04609 6.38961 9.41879 6.69548 9.68101 7.08791C9.94322 7.48035 10.0832 7.94173 10.0832 8.41371C10.0832 9.04661 9.83176 9.65359 9.38423 10.1011C8.9367 10.5487 8.32972 10.8001 7.69682 10.8001ZM22.6927 22.9769C22.6929 23.0484 22.679 23.1192 22.6517 23.1854C22.6245 23.2515 22.5844 23.3115 22.5338 23.3621C22.4833 23.4127 22.4232 23.4527 22.3571 23.48C22.291 23.5073 22.2201 23.5212 22.1486 23.521H19.4441C19.3726 23.5212 19.3017 23.5073 19.2356 23.48C19.1695 23.4527 19.1095 23.4127 19.0589 23.3621C19.0083 23.3115 18.9683 23.2515 18.941 23.1854C18.9137 23.1192 18.8998 23.0484 18.9 22.9769V18.0371C18.9 17.2989 19.1164 14.8044 16.9702 14.8044C15.3077 14.8044 14.9689 16.5114 14.902 17.2783V22.9833C14.9021 23.1262 14.8458 23.2634 14.7455 23.3652C14.6452 23.467 14.5088 23.5253 14.3659 23.5273H11.7536C11.6823 23.5273 11.6116 23.5133 11.5457 23.4859C11.4797 23.4585 11.4199 23.4184 11.3695 23.3679C11.3191 23.3173 11.2791 23.2573 11.252 23.1913C11.2248 23.1253 11.2109 23.0546 11.2111 22.9833V12.3448C11.2109 12.2735 11.2248 12.2028 11.252 12.1367C11.2791 12.0707 11.3191 12.0108 11.3695 11.9602C11.4199 11.9097 11.4797 11.8696 11.5457 11.8422C11.6116 11.8148 11.6823 11.8008 11.7536 11.8008H14.3659C14.5102 11.8008 14.6486 11.8581 14.7506 11.9601C14.8527 12.0622 14.91 12.2005 14.91 12.3448V13.2644C15.5273 12.3369 16.442 11.6242 18.3941 11.6242C22.7182 11.6242 22.6895 15.6619 22.6895 17.8796L22.6927 22.9769Z" fill="#008080"/>
</g>
<defs>
<clipPath id="clip0_1183_3046">
<rect y="0.777344" width="28" height="28" rx="6" fill="white"/>
</clipPath>
</defs>
</svg>
