<svg width="20" height="20" viewBox="0 0 20 20" fill="none" xmlns="http://www.w3.org/2000/svg">
<path d="M6.58365 1.21241C6.2949 0.514908 5.53365 0.143658 4.80615 0.342408L1.50615 1.24241C0.853652 1.42241 0.399902 2.01491 0.399902 2.68991C0.399902 11.9674 7.9224 19.4899 17.1999 19.4899C17.8749 19.4899 18.4674 19.0362 18.6474 18.3837L19.5474 15.0837C19.7462 14.3562 19.3749 13.5949 18.6774 13.3062L15.0774 11.8062C14.4662 11.5512 13.7574 11.7274 13.3412 12.2412L11.8262 14.0899C9.18615 12.8412 7.04865 10.7037 5.7999 8.06366L7.64865 6.55241C8.1624 6.13241 8.33865 5.42741 8.08365 4.81616L6.58365 1.21616V1.21241Z" fill="#008080"/>
</svg>
