<svg width="20" height="20" viewBox="0 0 20 20" fill="none" xmlns="http://www.w3.org/2000/svg">
<path d="M13.5999 9.88906C13.5999 10.7216 13.5549 11.5241 13.4762 12.2891H6.5274C6.4449 11.5241 6.40365 10.7216 6.40365 9.88906C6.40365 9.05656 6.44865 8.25406 6.5274 7.48906H13.4762C13.5587 8.25406 13.5999 9.05656 13.5999 9.88906ZM14.6799 7.48906H19.2962C19.4949 8.25781 19.5999 9.06031 19.5999 9.88906C19.5999 10.7178 19.4949 11.5203 19.2962 12.2891H14.6799C14.7587 11.5166 14.7999 10.7141 14.7999 9.88906C14.7999 9.06406 14.7587 8.26156 14.6799 7.48906ZM18.9024 6.28906H14.5262C14.1512 3.89281 13.4087 1.88656 12.4524 0.604062C15.3887 1.38031 17.7774 3.51031 18.8987 6.28906H18.9024ZM13.3112 6.28906H6.68865C6.9174 4.92406 7.2699 3.71656 7.70115 2.73781C8.0949 1.85281 8.53365 1.21156 8.9574 0.806563C9.3774 0.409062 9.72615 0.289062 9.9999 0.289062C10.2737 0.289062 10.6224 0.409062 11.0424 0.806563C11.4662 1.21156 11.9049 1.85281 12.2987 2.73781C12.7337 3.71281 13.0824 4.92031 13.3112 6.28906ZM5.47365 6.28906H1.0974C2.2224 3.51031 4.6074 1.38031 7.5474 0.604062C6.59115 1.88656 5.84865 3.89281 5.47365 6.28906ZM0.703652 7.48906H5.3199C5.24115 8.26156 5.1999 9.06406 5.1999 9.88906C5.1999 10.7141 5.24115 11.5166 5.3199 12.2891H0.703652C0.504902 11.5203 0.399902 10.7178 0.399902 9.88906C0.399902 9.06031 0.504902 8.25781 0.703652 7.48906ZM7.70115 17.0366C7.26615 16.0616 6.9174 14.8541 6.68865 13.4891H13.3112C13.0824 14.8541 12.7299 16.0616 12.2987 17.0366C11.9049 17.9216 11.4662 18.5628 11.0424 18.9678C10.6224 19.3691 10.2737 19.4891 9.9999 19.4891C9.72615 19.4891 9.3774 19.3691 8.9574 18.9716C8.53365 18.5666 8.0949 17.9253 7.70115 17.0403V17.0366ZM5.47365 13.4891C5.84865 15.8853 6.59115 17.8916 7.5474 19.1741C4.6074 18.3978 2.2224 16.2678 1.0974 13.4891H5.47365ZM18.9024 13.4891C17.7774 16.2678 15.3924 18.3978 12.4562 19.1741C13.4124 17.8916 14.1512 15.8853 14.5299 13.4891H18.9062H18.9024Z" fill="#008080"/>
</svg>
