<svg width="28" height="29" viewBox="0 0 28 29" fill="none" xmlns="http://www.w3.org/2000/svg">
<g clip-path="url(#clip0_1183_3042)">
<path d="M12.2002 12.0215V17.1326L16.9113 14.5993L12.2002 12.0215Z" fill="#008080"/>
<path d="M20.9778 0.777344H7C3.15556 0.777344 0 3.9329 0 7.79957V21.7773C0 25.6218 3.15556 28.7773 7 28.7773H20.9778C24.8444 28.7773 28 25.6218 28 21.7551V7.79957C28 3.9329 24.8444 0.777344 20.9778 0.777344ZM22.6667 15.4662C22.6667 16.9329 22.5333 18.4218 22.5333 18.4218C22.5333 18.4218 22.3778 19.6662 21.8667 20.2218C21.2 20.9551 20.4667 20.9551 20.1333 20.9996C17.6889 21.1773 14.0222 21.1996 14.0222 21.1996C14.0222 21.1996 9.46667 21.1329 8.06667 20.9996C7.68889 20.9329 6.8 20.9551 6.13333 20.2218C5.6 19.6662 5.46667 18.4218 5.46667 18.4218C5.46667 18.4218 5.33333 16.9329 5.33333 15.4662V14.0885C5.33333 12.6218 5.46667 11.1329 5.46667 11.1329C5.46667 11.1329 5.62222 9.88846 6.13333 9.3329C6.8 8.59957 7.53333 8.57734 7.86667 8.5329C10.3333 8.35512 14 8.3329 14 8.3329C14 8.3329 17.6667 8.35512 20.1111 8.5329C20.4444 8.57734 21.2 8.59957 21.8667 9.31068C22.4 9.86623 22.5333 11.1329 22.5333 11.1329C22.5333 11.1329 22.6667 12.6218 22.6667 14.0885V15.4662Z" fill="#008080"/>
</g>
<defs>
<clipPath id="clip0_1183_3042">
<rect width="28" height="28" fill="white" transform="translate(0 0.777344)"/>
</clipPath>
</defs>
</svg>
