<svg width="20" height="20" viewBox="0 0 20 20" fill="none" xmlns="http://www.w3.org/2000/svg">
<path d="M2.75 3C3.16562 3 3.5 3.33437 3.5 3.75V14.75C3.5 15.1656 3.83438 15.5 4.25 15.5H17.25C17.6656 15.5 18 15.8344 18 16.25C18 16.6656 17.6656 17 17.25 17H4.25C3.00625 17 2 15.9937 2 14.75V3.75C2 3.33437 2.33437 3 2.75 3ZM7.25 9C7.66563 9 8 9.33437 8 9.75V12.25C8 12.6656 7.66563 13 7.25 13C6.83437 13 6.5 12.6656 6.5 12.25V9.75C6.5 9.33437 6.83437 9 7.25 9ZM11 6.75V9.25C11 9.66563 10.6656 10 10.25 10C9.83437 10 9.5 9.66563 9.5 9.25V6.75C9.5 6.33437 9.83437 6 10.25 6C10.6656 6 11 6.33437 11 6.75ZM13.25 4C13.6656 4 14 4.33438 14 4.75V7.25C14 7.66563 13.6656 8 13.25 8C12.8344 8 12.5 7.66563 12.5 7.25V4.75C12.5 4.33438 12.8344 4 13.25 4ZM17 4.75V12.25C17 12.6656 16.6656 13 16.25 13C15.8344 13 15.5 12.6656 15.5 12.25V4.75C15.5 4.33438 15.8344 4 16.25 4C16.6656 4 17 4.33438 17 4.75Z" fill="#202223"/>
</svg>
