<svg xmlns="http://www.w3.org/2000/svg" xmlns:xlink="http://www.w3.org/1999/xlink" width="500" zoomAndPan="magnify" viewBox="0 0 375 139.500001" height="186" preserveAspectRatio="xMidYMid meet" version="1.0"><defs><g/><clipPath id="5d09100ec1"><path d="M 36.3125 20.453125 L 130.617188 20.453125 L 130.617188 118.316406 L 36.3125 118.316406 Z M 36.3125 20.453125 " clip-rule="nonzero"/></clipPath></defs><g fill="#00bf63" fill-opacity="1"><g transform="translate(145.355319, 80.673145)"><g><path d="M 15.140625 0.203125 C 13.253906 0.203125 11.46875 -0.175781 9.78125 -0.9375 C 8.101562 -1.707031 6.628906 -2.769531 5.359375 -4.125 C 4.085938 -5.476562 3.09375 -7.054688 2.375 -8.859375 C 1.664062 -10.671875 1.3125 -12.628906 1.3125 -14.734375 C 1.3125 -16.722656 1.664062 -18.597656 2.375 -20.359375 C 3.09375 -22.128906 4.09375 -23.6875 5.375 -25.03125 C 6.65625 -26.375 8.15625 -27.425781 9.875 -28.1875 C 11.601562 -28.957031 13.484375 -29.34375 15.515625 -29.34375 C 18.242188 -29.34375 20.585938 -28.757812 22.546875 -27.59375 C 24.503906 -26.425781 25.972656 -24.890625 26.953125 -22.984375 L 22.734375 -19.859375 C 21.992188 -21.304688 20.957031 -22.410156 19.625 -23.171875 C 18.300781 -23.941406 16.863281 -24.328125 15.3125 -24.328125 C 14.070312 -24.328125 12.945312 -24.066406 11.9375 -23.546875 C 10.925781 -23.023438 10.050781 -22.3125 9.3125 -21.40625 C 8.570312 -20.507812 8.003906 -19.472656 7.609375 -18.296875 C 7.210938 -17.117188 7.015625 -15.875 7.015625 -14.5625 C 7.015625 -13.164062 7.222656 -11.878906 7.640625 -10.703125 C 8.066406 -9.523438 8.671875 -8.5 9.453125 -7.625 C 10.234375 -6.75 11.144531 -6.054688 12.1875 -5.546875 C 13.226562 -5.046875 14.378906 -4.796875 15.640625 -4.796875 C 17.109375 -4.796875 18.519531 -5.175781 19.875 -5.9375 C 21.226562 -6.707031 22.492188 -7.832031 23.671875 -9.3125 L 23.671875 -3.734375 C 21.234375 -1.109375 18.390625 0.203125 15.140625 0.203125 Z M 23.265625 -10.828125 L 17.390625 -10.828125 L 17.390625 -14.96875 L 27.9375 -14.96875 L 27.9375 0 L 23.265625 0 Z M 23.265625 -10.828125 "/></g></g></g><g fill="#00bf63" fill-opacity="1"><g transform="translate(175.086362, 80.673145)"><g><path d="M 12.4375 0.40625 C 10.6875 0.40625 9.113281 0.113281 7.71875 -0.46875 C 6.320312 -1.0625 5.132812 -1.875 4.15625 -2.90625 C 3.1875 -3.945312 2.441406 -5.140625 1.921875 -6.484375 C 1.410156 -7.828125 1.15625 -9.234375 1.15625 -10.703125 C 1.15625 -12.210938 1.410156 -13.632812 1.921875 -14.96875 C 2.441406 -16.3125 3.1875 -17.503906 4.15625 -18.546875 C 5.132812 -19.585938 6.320312 -20.398438 7.71875 -20.984375 C 9.113281 -21.578125 10.6875 -21.875 12.4375 -21.875 C 14.1875 -21.875 15.75 -21.578125 17.125 -20.984375 C 18.507812 -20.398438 19.691406 -19.585938 20.671875 -18.546875 C 21.660156 -17.503906 22.40625 -16.3125 22.90625 -14.96875 C 23.414062 -13.632812 23.671875 -12.210938 23.671875 -10.703125 C 23.671875 -9.234375 23.414062 -7.828125 22.90625 -6.484375 C 22.40625 -5.140625 21.671875 -3.945312 20.703125 -2.90625 C 19.734375 -1.875 18.550781 -1.0625 17.15625 -0.46875 C 15.757812 0.113281 14.1875 0.40625 12.4375 0.40625 Z M 6.8125 -10.703125 C 6.8125 -9.453125 7.054688 -8.335938 7.546875 -7.359375 C 8.035156 -6.390625 8.703125 -5.628906 9.546875 -5.078125 C 10.398438 -4.535156 11.363281 -4.265625 12.4375 -4.265625 C 13.46875 -4.265625 14.40625 -4.546875 15.25 -5.109375 C 16.101562 -5.671875 16.78125 -6.4375 17.28125 -7.40625 C 17.789062 -8.375 18.046875 -9.488281 18.046875 -10.75 C 18.046875 -11.976562 17.789062 -13.082031 17.28125 -14.0625 C 16.78125 -15.050781 16.101562 -15.816406 15.25 -16.359375 C 14.40625 -16.910156 13.46875 -17.1875 12.4375 -17.1875 C 11.363281 -17.1875 10.398438 -16.90625 9.546875 -16.34375 C 8.703125 -15.789062 8.035156 -15.023438 7.546875 -14.046875 C 7.054688 -13.078125 6.8125 -11.960938 6.8125 -10.703125 Z M 6.8125 -10.703125 "/></g></g></g><g fill="#00bf63" fill-opacity="1"><g transform="translate(199.937397, 80.673145)"><g><path d="M 8.28125 0 L 0.375 -21.5 L 6.078125 -21.5 L 11.484375 -5 L 16.953125 -21.5 L 22.15625 -21.5 L 14.28125 0 Z M 8.28125 0 "/></g></g></g><g fill="#00bf63" fill-opacity="1"><g transform="translate(222.49196, 80.673145)"><g><path d="M 12.46875 0.40625 C 10.75 0.40625 9.191406 0.113281 7.796875 -0.46875 C 6.398438 -1.0625 5.207031 -1.867188 4.21875 -2.890625 C 3.238281 -3.921875 2.484375 -5.097656 1.953125 -6.421875 C 1.421875 -7.742188 1.15625 -9.144531 1.15625 -10.625 C 1.15625 -12.675781 1.609375 -14.550781 2.515625 -16.25 C 3.429688 -17.945312 4.742188 -19.304688 6.453125 -20.328125 C 8.171875 -21.359375 10.191406 -21.875 12.515625 -21.875 C 14.867188 -21.875 16.878906 -21.359375 18.546875 -20.328125 C 20.210938 -19.304688 21.488281 -17.953125 22.375 -16.265625 C 23.269531 -14.585938 23.71875 -12.773438 23.71875 -10.828125 C 23.71875 -10.503906 23.703125 -10.171875 23.671875 -9.828125 C 23.648438 -9.484375 23.625 -9.203125 23.59375 -8.984375 L 6.96875 -8.984375 C 7.082031 -7.890625 7.40625 -6.929688 7.9375 -6.109375 C 8.46875 -5.285156 9.148438 -4.660156 9.984375 -4.234375 C 10.828125 -3.816406 11.722656 -3.609375 12.671875 -3.609375 C 13.765625 -3.609375 14.796875 -3.875 15.765625 -4.40625 C 16.742188 -4.945312 17.410156 -5.65625 17.765625 -6.53125 L 22.484375 -5.21875 C 21.960938 -4.113281 21.21875 -3.140625 20.25 -2.296875 C 19.28125 -1.453125 18.140625 -0.789062 16.828125 -0.3125 C 15.515625 0.164062 14.0625 0.40625 12.46875 0.40625 Z M 6.859375 -12.46875 L 18.09375 -12.46875 C 17.988281 -13.5625 17.679688 -14.507812 17.171875 -15.3125 C 16.660156 -16.125 15.992188 -16.753906 15.171875 -17.203125 C 14.359375 -17.660156 13.445312 -17.890625 12.4375 -17.890625 C 11.445312 -17.890625 10.546875 -17.660156 9.734375 -17.203125 C 8.929688 -16.753906 8.273438 -16.125 7.765625 -15.3125 C 7.265625 -14.507812 6.960938 -13.5625 6.859375 -12.46875 Z M 6.859375 -12.46875 "/></g></g></g><g fill="#00bf63" fill-opacity="1"><g transform="translate(247.055933, 80.673145)"><g><path d="M 15.3125 -16.734375 C 13.632812 -16.734375 12.140625 -16.410156 10.828125 -15.765625 C 9.515625 -15.128906 8.570312 -14.207031 8 -13 L 8 0 L 2.5 0 L 2.5 -21.5 L 7.546875 -21.5 L 7.546875 -16.90625 C 8.316406 -18.382812 9.289062 -19.546875 10.46875 -20.390625 C 11.644531 -21.242188 12.890625 -21.707031 14.203125 -21.78125 C 14.492188 -21.78125 14.722656 -21.78125 14.890625 -21.78125 C 15.054688 -21.78125 15.195312 -21.769531 15.3125 -21.75 Z M 15.3125 -16.734375 "/></g></g></g><g fill="#00bf63" fill-opacity="1"><g transform="translate(262.926146, 80.673145)"><g><path d="M 22.484375 0 L 16.984375 0 L 16.984375 -12.0625 C 16.984375 -13.78125 16.679688 -15.035156 16.078125 -15.828125 C 15.484375 -16.628906 14.648438 -17.03125 13.578125 -17.03125 C 12.835938 -17.03125 12.09375 -16.835938 11.34375 -16.453125 C 10.59375 -16.066406 9.914062 -15.539062 9.3125 -14.875 C 8.707031 -14.207031 8.269531 -13.4375 8 -12.5625 L 8 0 L 2.5 0 L 2.5 -21.5 L 7.46875 -21.5 L 7.46875 -17.515625 C 8.007812 -18.453125 8.703125 -19.238281 9.546875 -19.875 C 10.398438 -20.519531 11.378906 -21.015625 12.484375 -21.359375 C 13.597656 -21.703125 14.769531 -21.875 16 -21.875 C 17.34375 -21.875 18.441406 -21.632812 19.296875 -21.15625 C 20.160156 -20.675781 20.816406 -20.03125 21.265625 -19.21875 C 21.722656 -18.414062 22.039062 -17.503906 22.21875 -16.484375 C 22.394531 -15.472656 22.484375 -14.453125 22.484375 -13.421875 Z M 22.484375 0 "/></g></g></g><g fill="#00bf63" fill-opacity="1"><g transform="translate(287.69516, 80.673145)"><g><path d="M 2.5 0 L 2.5 -21.5 L 8 -21.5 L 8 0 Z M 2.5 -24.5 L 2.5 -29.953125 L 8 -29.953125 L 8 -24.5 Z M 2.5 -24.5 "/></g></g></g><g fill="#00bf63" fill-opacity="1"><g transform="translate(298.152292, 80.673145)"><g><path d="M 3.8125 0 L 3.8125 -16.171875 L 0.984375 -16.171875 L 0.984375 -20.34375 L 3.8125 -20.34375 L 3.8125 -21.671875 C 3.8125 -23.441406 4.101562 -24.976562 4.6875 -26.28125 C 5.28125 -27.582031 6.117188 -28.585938 7.203125 -29.296875 C 8.285156 -30.003906 9.550781 -30.359375 11 -30.359375 C 11.875 -30.359375 12.753906 -30.25 13.640625 -30.03125 C 14.523438 -29.8125 15.410156 -29.5 16.296875 -29.09375 L 15.1875 -24.953125 C 14.769531 -25.171875 14.285156 -25.351562 13.734375 -25.5 C 13.191406 -25.65625 12.675781 -25.734375 12.1875 -25.734375 C 11.257812 -25.734375 10.546875 -25.398438 10.046875 -24.734375 C 9.554688 -24.078125 9.3125 -23.125 9.3125 -21.875 L 9.3125 -20.34375 L 14.5625 -20.34375 L 14.5625 -16.171875 L 9.3125 -16.171875 L 9.3125 0 Z M 3.8125 0 "/></g></g></g><g fill="#00bf63" fill-opacity="1"><g transform="translate(313.325362, 80.673145)"><g><path d="M 2.953125 4.1875 C 3.441406 4.289062 3.898438 4.382812 4.328125 4.46875 C 4.753906 4.550781 5.117188 4.59375 5.421875 4.59375 C 5.941406 4.59375 6.367188 4.460938 6.703125 4.203125 C 7.046875 3.941406 7.378906 3.476562 7.703125 2.8125 C 8.035156 2.144531 8.378906 1.207031 8.734375 0 L 0.25 -21.5 L 5.953125 -21.5 L 11.734375 -5.625 L 16.828125 -21.5 L 22.078125 -21.5 L 13.046875 4.265625 C 12.722656 5.222656 12.222656 6.09375 11.546875 6.875 C 10.878906 7.65625 10.046875 8.269531 9.046875 8.71875 C 8.046875 9.164062 6.929688 9.390625 5.703125 9.390625 C 5.265625 9.390625 4.828125 9.351562 4.390625 9.28125 C 3.953125 9.21875 3.472656 9.101562 2.953125 8.9375 Z M 2.953125 4.1875 "/></g></g></g><g clip-path="url(#5d09100ec1)"><path fill="#00bf63" d="M 85.347656 118.527344 C 58.3125 118.527344 36.316406 96.53125 36.316406 69.496094 C 36.316406 42.460938 58.3125 20.464844 85.347656 20.464844 C 98.976562 20.464844 112.097656 26.207031 121.355469 36.214844 L 123.859375 38.925781 L 104.875 56.484375 L 102.367188 53.773438 C 97.925781 48.96875 91.882812 46.328125 85.347656 46.328125 C 72.570312 46.328125 62.175781 56.71875 62.175781 69.496094 C 62.175781 76.035156 64.972656 82.308594 69.847656 86.703125 L 64.902344 92.191406 C 58.476562 86.398438 54.789062 78.125 54.789062 69.496094 C 54.789062 52.644531 68.5 38.9375 85.347656 38.9375 C 92.71875 38.9375 99.617188 41.488281 105.125 46.191406 L 113.296875 38.632812 C 105.683594 31.746094 95.6875 27.855469 85.347656 27.855469 C 62.386719 27.855469 43.707031 46.535156 43.707031 69.496094 C 43.707031 92.457031 62.386719 111.136719 85.347656 111.136719 C 94.386719 111.136719 102.757812 108.453125 109.554688 103.382812 C 114.773438 99.484375 119.070312 93.628906 121.757812 87.152344 L 81.652344 87.121094 L 81.652344 61.800781 L 130.46875 61.800781 L 130.46875 69.191406 L 89.042969 69.191406 L 89.042969 79.769531 L 130.484375 79.8125 C 130.484375 79.8125 130.839844 84.6875 128.4375 90.335938 C 125.234375 97.925781 120.148438 104.691406 113.972656 109.300781 C 105.890625 115.335938 95.992188 118.527344 85.347656 118.527344 " fill-opacity="1" fill-rule="nonzero"/></g></svg>