<?xml version="1.0" encoding="utf-8"?><!-- Uploaded to: SVG Repo, www.svgrepo.com, Generator: SVG Repo Mixer Tools -->
<svg width="800px" height="800px" viewBox="0 0 24 24" fill="none" xmlns="http://www.w3.org/2000/svg">
<path d="M4 4C4 3.44772 4.44772 3 5 3H14H14.5858C14.851 3 15.1054 3.10536 15.2929 3.29289L19.7071 7.70711C19.8946 7.89464 20 8.149 20 8.41421V20C20 20.5523 19.5523 21 19 21H5C4.44772 21 4 20.5523 4 20V4Z" stroke="#200E32" stroke-width="2" stroke-linecap="round"/>
<path d="M20 8H15V3" stroke="#200E32" stroke-width="2" stroke-linecap="round" stroke-linejoin="round"/>
<path d="M10.5 17L10.5 15.5M10.5 15.5L10.5 13L11.25 13C11.9404 13 12.5 13.5596 12.5 14.25V14.25C12.5 14.9404 11.9404 15.5 11.25 15.5H10.5Z" stroke="#200E32" stroke-width="1.5" stroke-linecap="round" stroke-linejoin="round"/>
<path d="M8.5 13L8.5 14.5L8.5 16C8.5 16.5523 8.05228 17 7.5 17V17C6.94772 17 6.5 16.5523 6.5 16L6.5 15.75" stroke="#200E32" stroke-width="1.5" stroke-linecap="round" stroke-linejoin="round"/>
<path d="M16.5 13H15.5C14.9477 13 14.5 13.4477 14.5 14V16C14.5 16.5523 14.9477 17 15.5 17H16C16.5523 17 17 16.5523 17 16V15.5" stroke="#200E32" stroke-width="1.5" stroke-linecap="round" stroke-linejoin="round"/>
<path d="M16.5 15.5H17" stroke="#200E32" stroke-width="1.5" stroke-linecap="round" stroke-linejoin="round"/>
</svg>