<svg width="20" height="20" viewBox="0 0 20 20" fill="none" xmlns="http://www.w3.org/2000/svg">
<path d="M4 4C3.73478 4 3.48043 4.10536 3.29289 4.29289C3.10536 4.48043 3 4.73478 3 5C3 5.26522 3.10536 5.51957 3.29289 5.70711C3.48043 5.89464 3.73478 6 4 6C4.26522 6 4.51957 5.89464 4.70711 5.70711C4.89464 5.51957 5 5.26522 5 5C5 4.73478 4.89464 4.48043 4.70711 4.29289C4.51957 4.10536 4.26522 4 4 4ZM7.75 4.25C7.33437 4.25 7 4.58438 7 5C7 5.41562 7.33437 5.75 7.75 5.75H17.25C17.6656 5.75 18 5.41562 18 5C18 4.58438 17.6656 4.25 17.25 4.25H7.75ZM7.75 9.25C7.33437 9.25 7 9.58437 7 10C7 10.4156 7.33437 10.75 7.75 10.75H17.25C17.6656 10.75 18 10.4156 18 10C18 9.58437 17.6656 9.25 17.25 9.25H7.75ZM7.75 14.25C7.33437 14.25 7 14.5844 7 15C7 15.4156 7.33437 15.75 7.75 15.75H17.25C17.6656 15.75 18 15.4156 18 15C18 14.5844 17.6656 14.25 17.25 14.25H7.75ZM5 10C5 9.73478 4.89464 9.48043 4.70711 9.29289C4.51957 9.10536 4.26522 9 4 9C3.73478 9 3.48043 9.10536 3.29289 9.29289C3.10536 9.48043 3 9.73478 3 10C3 10.2652 3.10536 10.5196 3.29289 10.7071C3.48043 10.8946 3.73478 11 4 11C4.26522 11 4.51957 10.8946 4.70711 10.7071C4.89464 10.5196 5 10.2652 5 10ZM4 14C3.73478 14 3.48043 14.1054 3.29289 14.2929C3.10536 14.4804 3 14.7348 3 15C3 15.2652 3.10536 15.5196 3.29289 15.7071C3.48043 15.8946 3.73478 16 4 16C4.26522 16 4.51957 15.8946 4.70711 15.7071C4.89464 15.5196 5 15.2652 5 15C5 14.7348 4.89464 14.4804 4.70711 14.2929C4.51957 14.1054 4.26522 14 4 14Z" fill="#00BF63"/>
</svg>
