<svg width="16" height="13" viewBox="0 0 16 13" fill="none" xmlns="http://www.w3.org/2000/svg">
<path d="M4.80586 1.2531C5.08398 0.943728 5.05898 0.471853 4.74961 0.193728C4.44023 -0.0843965 3.96836 -0.0593966 3.69023 0.249978L1.97148 2.15935L1.28086 1.46873C0.987109 1.1781 0.512109 1.1781 0.218359 1.46873C-0.0753906 1.75935 -0.0753906 2.23748 0.218359 2.5281L1.46836 3.7781C1.61523 3.92498 1.81211 4.0031 2.01836 3.99685C2.22461 3.9906 2.41836 3.9031 2.55586 3.74998L4.80586 1.24998V1.2531ZM4.80586 6.2531C5.08398 5.94373 5.05898 5.47185 4.74961 5.19373C4.44023 4.9156 3.96836 4.9406 3.69023 5.24998L1.97148 7.15935L1.28086 6.46873C0.987109 6.17498 0.512109 6.17498 0.221484 6.46873C-0.0691406 6.76248 -0.0722656 7.23748 0.221484 7.5281L1.47148 8.7781C1.61836 8.92498 1.81523 9.0031 2.02148 8.99685C2.22773 8.9906 2.42148 8.9031 2.55898 8.74998L4.80898 6.24998L4.80586 6.2531ZM6.74961 2.74998H15.2496C15.6652 2.74998 15.9996 2.4156 15.9996 1.99998C15.9996 1.58435 15.6652 1.24998 15.2496 1.24998H6.74961C6.33398 1.24998 5.99961 1.58435 5.99961 1.99998C5.99961 2.4156 6.33398 2.74998 6.74961 2.74998ZM5.99961 6.99998C5.99961 7.4156 6.33398 7.74998 6.74961 7.74998H15.2496C15.6652 7.74998 15.9996 7.4156 15.9996 6.99998C15.9996 6.58435 15.6652 6.24998 15.2496 6.24998H6.74961C6.33398 6.24998 5.99961 6.58435 5.99961 6.99998ZM4.99961 12C4.99961 12.4156 5.33398 12.75 5.74961 12.75H15.2496C15.6652 12.75 15.9996 12.4156 15.9996 12C15.9996 11.5844 15.6652 11.25 15.2496 11.25H5.74961C5.33398 11.25 4.99961 11.5844 4.99961 12ZM2.99961 12C2.99961 11.7348 2.89425 11.4804 2.70672 11.2929C2.51918 11.1053 2.26483 11 1.99961 11C1.73439 11 1.48004 11.1053 1.2925 11.2929C1.10497 11.4804 0.999609 11.7348 0.999609 12C0.999609 12.2652 1.10497 12.5195 1.2925 12.7071C1.48004 12.8946 1.73439 13 1.99961 13C2.26483 13 2.51918 12.8946 2.70672 12.7071C2.89425 12.5195 2.99961 12.2652 2.99961 12Z" fill="#202223"/>
</svg>
