<svg width="20" height="20" viewBox="0 0 20 20" fill="none" xmlns="http://www.w3.org/2000/svg">
<path d="M10 7C9.20435 7 8.44129 7.31607 7.87868 7.87868C7.31607 8.44129 7 9.20435 7 10C7 10.7956 7.31607 11.5587 7.87868 12.1213C8.44129 12.6839 9.20435 13 10 13C10.7956 13 11.5587 12.6839 12.1213 12.1213C12.6839 11.5587 13 10.7956 13 10C13 9.20435 12.6839 8.44129 12.1213 7.87868C11.5587 7.31607 10.7956 7 10 7ZM11.5 10C11.5 10.3978 11.342 10.7794 11.0607 11.0607C10.7794 11.342 10.3978 11.5 10 11.5C9.60218 11.5 9.22064 11.342 8.93934 11.0607C8.65804 10.7794 8.5 10.3978 8.5 10C8.5 9.60218 8.65804 9.22064 8.93934 8.93934C9.22064 8.65804 9.60218 8.5 10 8.5C10.3978 8.5 10.7794 8.65804 11.0607 8.93934C11.342 9.22064 11.5 9.60218 11.5 10ZM9.34062 2C8.64687 2 8.04375 2.475 7.88125 3.14688L7.625 4.21875L7.59062 4.23125L6.65312 3.65625C6.0625 3.29375 5.3 3.38437 4.80938 3.875L3.87812 4.80938C3.3875 5.3 3.29688 6.0625 3.65937 6.65312L4.23438 7.59062L4.21875 7.625L3.15 7.88438C2.475 8.04375 2 8.64687 2 9.34062V10.6594C2 11.3531 2.475 11.9562 3.14688 12.1187L4.21875 12.375L4.23125 12.4094L3.65625 13.3469C3.29375 13.9375 3.38437 14.7 3.875 15.1906L4.80625 16.1219C5.29688 16.6125 6.05938 16.7031 6.65 16.3406L7.5875 15.7656L7.62187 15.7781L7.88125 16.8469C8.04375 17.5219 8.64687 17.9937 9.34062 17.9937H10.6594C11.3531 17.9937 11.9562 17.5188 12.1187 16.8469L12.375 15.7812L12.4094 15.7688L13.3469 16.3438C13.9375 16.7063 14.7 16.6156 15.1906 16.125L16.1219 15.1938C16.6125 14.7031 16.7031 13.9406 16.3406 13.35L15.7656 12.4125L15.7781 12.3781L16.8469 12.1187C17.5219 11.9562 17.9937 11.3531 17.9937 10.6594V9.34062C17.9937 8.64687 17.5188 8.04375 16.8469 7.88125L15.7812 7.625L15.7688 7.59062L16.3438 6.65312C16.7063 6.0625 16.6156 5.3 16.125 4.80938L15.1906 3.87812C14.7 3.3875 13.9375 3.29688 13.3469 3.65937L12.4094 4.23438L12.375 4.21875L12.1156 3.15C11.9563 2.475 11.3531 2 10.6594 2H9.34062ZM9.34062 3.5H10.6594L11.0125 4.95625C11.0719 5.20625 11.2594 5.40937 11.5031 5.49062C11.7156 5.5625 11.925 5.64688 12.125 5.74688C12.3562 5.8625 12.6312 5.85 12.8531 5.71563L14.1313 4.93438L15.0625 5.86875L14.2812 7.14687C14.1469 7.36875 14.1344 7.64375 14.25 7.875C14.35 8.075 14.4375 8.28125 14.5063 8.49687C14.5875 8.74375 14.7906 8.92813 15.0406 8.9875L16.5 9.34062V10.6594L15.0437 11.0125C14.7937 11.0719 14.5906 11.2594 14.5094 11.5031C14.4375 11.7156 14.3531 11.925 14.2531 12.125C14.1375 12.3562 14.15 12.6312 14.2844 12.8531L15.0656 14.1313L14.1313 15.0625L12.8531 14.2812C12.6312 14.1469 12.3562 14.1344 12.125 14.25C11.925 14.35 11.7188 14.4375 11.5031 14.5063C11.2563 14.5875 11.0719 14.7906 11.0125 15.0406L10.6594 16.5H9.34062L8.9875 15.0437C8.92813 14.7937 8.74062 14.5906 8.49687 14.5094C8.28437 14.4375 8.075 14.3531 7.875 14.2531C7.64375 14.1375 7.36875 14.15 7.14687 14.2844L5.86875 15.0656L4.9375 14.1313L5.71875 12.8531C5.85313 12.6312 5.86562 12.3562 5.75 12.125C5.65 11.925 5.5625 11.7188 5.49375 11.5031C5.4125 11.2563 5.20937 11.0719 4.95937 11.0125L3.5 10.6594V9.34062L4.95625 8.9875C5.20625 8.92813 5.40937 8.74062 5.49062 8.49687C5.5625 8.28437 5.64688 8.075 5.74688 7.875C5.8625 7.64375 5.85 7.36875 5.71563 7.14687L4.9375 5.86875L5.86875 4.9375L7.14687 5.71875C7.36875 5.85313 7.64375 5.86562 7.875 5.75C8.075 5.65 8.28125 5.5625 8.49687 5.49375C8.74375 5.4125 8.92813 5.20937 8.9875 4.95937L9.34062 3.5Z" fill="#202223"/>
</svg>
