<svg width="136" height="90" viewBox="0 0 136 90" fill="none" xmlns="http://www.w3.org/2000/svg">
<g filter="url(#filter0_dd_1042_2090)">
<path fill-rule="evenodd" clip-rule="evenodd" d="M69.3672 63.9919C68.1734 65.4272 66.2379 65.4272 65.044 63.9919L63.2896 61.9857C62.4099 60.9797 61.9701 60.4768 61.4384 60.1157C60.9672 59.7957 60.4449 59.5586 59.8938 59.4146C59.272 59.252 58.6039 59.252 57.2675 59.252H28.0078C23.8324 59.252 22.3183 58.8471 20.7919 58.0867C19.2654 57.3264 18.0675 56.2105 17.2511 54.7888C16.4347 53.367 16 51.9568 16 48.0677V19.2527C16 15.3636 16.4347 13.9534 17.2511 12.5316C18.0675 11.1098 19.2654 9.99403 20.7919 9.23366C22.3183 8.47329 23.8324 8.06836 28.0078 8.06836H107.028C111.203 8.06836 112.717 8.47329 114.244 9.23366C115.77 9.99403 116.968 11.1098 117.785 12.5316C118.601 13.9534 119.036 15.3636 119.036 19.2527V48.0677C119.036 51.9568 118.601 53.367 117.785 54.7888C116.968 56.2105 115.77 57.3264 114.244 58.0867C112.717 58.8471 111.203 59.252 107.028 59.252H79.8088C78.0862 59.252 77.2249 59.252 76.4095 59.3878C74.6822 59.6753 73.0607 60.4114 71.7072 61.5223C71.0682 62.0468 70.5012 62.6952 69.3672 63.9919Z" fill="white"/>
</g>
<defs>
<filter id="filter0_dd_1042_2090" x="0" y="0.0683594" width="135.036" height="89" filterUnits="userSpaceOnUse" color-interpolation-filters="sRGB">
<feFlood flood-opacity="0" result="BackgroundImageFix"/>
<feColorMatrix in="SourceAlpha" type="matrix" values="0 0 0 0 0 0 0 0 0 0 0 0 0 0 0 0 0 0 127 0" result="hardAlpha"/>
<feOffset dy="8"/>
<feGaussianBlur stdDeviation="8"/>
<feColorMatrix type="matrix" values="0 0 0 0 0.196487 0 0 0 0 0.196487 0 0 0 0 0.279476 0 0 0 0.06 0"/>
<feBlend mode="multiply" in2="BackgroundImageFix" result="effect1_dropShadow_1042_2090"/>
<feColorMatrix in="SourceAlpha" type="matrix" values="0 0 0 0 0 0 0 0 0 0 0 0 0 0 0 0 0 0 127 0" result="hardAlpha"/>
<feOffset dy="8"/>
<feGaussianBlur stdDeviation="4"/>
<feColorMatrix type="matrix" values="0 0 0 0 0.196487 0 0 0 0 0.196487 0 0 0 0 0.279476 0 0 0 0.08 0"/>
<feBlend mode="multiply" in2="effect1_dropShadow_1042_2090" result="effect2_dropShadow_1042_2090"/>
<feBlend mode="normal" in="SourceGraphic" in2="effect2_dropShadow_1042_2090" result="shape"/>
</filter>
</defs>
</svg>
