<svg width="20" height="20" viewBox="0 0 20 20" fill="none" xmlns="http://www.w3.org/2000/svg">
<path d="M4.5 7C5.16304 7 5.79893 6.73661 6.26777 6.26777C6.73661 5.79893 7 5.16304 7 4.5C7 3.83696 6.73661 3.20107 6.26777 2.73223C5.79893 2.26339 5.16304 2 4.5 2C3.83696 2 3.20107 2.26339 2.73223 2.73223C2.26339 3.20107 2 3.83696 2 4.5C2 5.16304 2.26339 5.79893 2.73223 6.26777C3.20107 6.73661 3.83696 7 4.5 7ZM16 7C16.663 7 17.2989 6.73661 17.7678 6.26777C18.2366 5.79893 18.5 5.16304 18.5 4.5C18.5 3.83696 18.2366 3.20107 17.7678 2.73223C17.2989 2.26339 16.663 2 16 2C15.337 2 14.7011 2.26339 14.2322 2.73223C13.7634 3.20107 13.5 3.83696 13.5 4.5C13.5 5.16304 13.7634 5.79893 14.2322 6.26777C14.7011 6.73661 15.337 7 16 7ZM0 11.3344C0 11.7 0.3 12 0.665625 12H7.33125C7.3375 12 7.34375 12 7.35313 12C6.52187 11.2656 6 10.1938 6 9C6 8.7625 6.02187 8.53125 6.05937 8.30312C5.63437 8.10625 5.1625 8 4.66563 8H3.33125C1.49375 8 0 9.49375 0 11.3344ZM12.6656 12H19.3312C19.7 12 19.9969 11.7 19.9969 11.3344C20 9.49375 18.5063 8 16.6656 8H15.3313C14.8344 8 14.3625 8.10938 13.9375 8.30312C13.9781 8.52812 13.9969 8.7625 13.9969 9C13.9969 10.1938 13.4719 11.2656 12.6438 12C12.65 12 12.6562 12 12.6656 12ZM10 7.5C10.197 7.5 10.392 7.5388 10.574 7.61418C10.756 7.68956 10.9214 7.80005 11.0607 7.93934C11.1999 8.07863 11.3104 8.24399 11.3858 8.42597C11.4612 8.60796 11.5 8.80302 11.5 9C11.5 9.19698 11.4612 9.39204 11.3858 9.57403C11.3104 9.75601 11.1999 9.92137 11.0607 10.0607C10.9214 10.1999 10.756 10.3104 10.574 10.3858C10.392 10.4612 10.197 10.5 10 10.5C9.80302 10.5 9.60796 10.4612 9.42597 10.3858C9.24399 10.3104 9.07863 10.1999 8.93934 10.0607C8.80005 9.92137 8.68956 9.75601 8.61418 9.57403C8.5388 9.39204 8.5 9.19698 8.5 9C8.5 8.80302 8.5388 8.60796 8.61418 8.42597C8.68956 8.24399 8.80005 8.07863 8.93934 7.93934C9.07863 7.80005 9.24399 7.68956 9.42597 7.61418C9.60796 7.5388 9.80302 7.5 10 7.5ZM10 12C10.394 12 10.7841 11.9224 11.1481 11.7716C11.512 11.6209 11.8427 11.3999 12.1213 11.1213C12.3999 10.8427 12.6209 10.512 12.7716 10.1481C12.9224 9.78407 13 9.39397 13 9C13 8.60603 12.9224 8.21593 12.7716 7.85195C12.6209 7.48797 12.3999 7.15726 12.1213 6.87868C11.8427 6.6001 11.512 6.37913 11.1481 6.22836C10.7841 6.0776 10.394 6 10 6C9.60603 6 9.21593 6.0776 8.85195 6.22836C8.48797 6.37913 8.15726 6.6001 7.87868 6.87868C7.6001 7.15726 7.37913 7.48797 7.22836 7.85195C7.0776 8.21593 7 8.60603 7 9C7 9.39397 7.0776 9.78407 7.22836 10.1481C7.37913 10.512 7.6001 10.8427 7.87868 11.1213C8.15726 11.3999 8.48797 11.6209 8.85195 11.7716C9.21593 11.9224 9.60603 12 10 12ZM8.16562 14.5H11.8313C13.075 14.5 14.1188 15.35 14.4125 16.5H5.58125C5.87813 15.35 6.92188 14.5 8.1625 14.5H8.16562ZM8.16562 13C5.86562 13 4 14.8656 4 17.1656C4 17.625 4.37187 18 4.83437 18H15.1687C15.6281 18 16.0031 17.6281 16.0031 17.1656C16 14.8656 14.1344 13 11.8344 13H8.16875H8.16562Z" fill="white"/>
</svg>
